# xmcd CD database file
#
# Track frame offsets:
#	183
#	11548
#	24610
#	41873
#	55433
#	66870
#	80103
#	94593
#	107373
#	121403
#	135140
#	148988
#	159683
#	173270
#	192873
#	206370
#
# Disc length: 2914 seconds
#
# Revision: 2
# Processed by: cddbd v1.5.1PL0 Copyright (c) Steve Scherf et al.
# Submitted via: CDex 1.51
#
DISCID=d50b6010
DTITLE=Alexis Korner's Blues Incorporated - Rythm And Blues From The Marquee
DYEAR=1957
DGENRE=Blues
TTITLE0=Gotta Move
TTITLE1=Rain Is Such A Lonesome Sound
TTITLE2=I Got My Brand On You
TTITLE3=Spooky But Nice
TTITLE4=Keep Your Hands Off
TTITLE5=I Wanna Put A Tiger In Your Tank
TTITLE6=I Got My Mojo Working
TTITLE7=Finkle's Cafe
TTITLE8=Hoochie Coochie Man
TTITLE9=Down Town
TTITLE10=How Long, How Long Blues
TTITLE11=I Thought I Heard That Train Whistle Blow
TTITLE12=Early In The Morning
TTITLE13=Night Time Is The Right Time
TTITLE14=Sail On
TTITLE15=I Ain't Gonna Worry No More
EXTD=Deram 820986-2   1991\nsubmitted by Dave (gnomad@been-there.com) YEAR: 1957
EXTT0=
EXTT1=
EXTT2=
EXTT3=
EXTT4=
EXTT5=
EXTT6=
EXTT7=
EXTT8=
EXTT9=
EXTT10=
EXTT11=
EXTT12=
EXTT13=
EXTT14=
EXTT15=
PLAYORDER=
